:SAMPLES-PER-SECOND 30
:FULLY-SPECIFIED
:DEGREES
546
root  -2.43937 40.8913 1.13813 -3.21921 -75.8281 3.79687
RightUpLeg  5.15974 -3.45857 -2.98206
RightLeg  -2.38335 -31.5728 1.79609
RightFoot  -1.02366 -0.428552 4.66802
RightToes  -3.13006e-008 1.75238e-005 3.56266e-009
Spine  -7.46587 3.25846 1.04127
Spine1  15.1343 4.79235 -4.0657
HEad  -17.1086 -12.7915 19.5597
LeftShoulder1  4.00849 -8.18785 -28.237
LeftArm  -3.05926 25.4533 -42.9022
LeftForeArm  159.581 -71.97 -148.862
LeftHand  -0.358159 -4.99828 4.30463
RightShoulder  3.37551 7.72991 23.9066
RightArm  -23.0652 40.7237 45.1811
RightForeArm  42.1353 69.4212 26.0585
RightHand  -1.08793 4.67637 -12.778
LeftUpLeg  -1.08923 -0.918033 0.157628
LeftLeg  1.24447 1.3549 -0.164437
LeftFoot  -0.311239 0.140891 -1.4398
LeftToes  4.76866e-008 1.46233e-008 1.30548e-009
547
root  -2.42409 40.9019 1.13329 -3.10475 -75.873 3.78934
RightUpLeg  5.11864 -3.38624 -2.95419
RightLeg  -2.63742 -31.6115 1.91992
RightFoot  -0.93312 -0.425581 4.61312
RightToes  -3.13006e-008 1.75238e-005 3.56266e-009
Spine  -7.28027 3.0919 1.18796
Spine1  14.2044 4.73339 -4.68973
HEad  -16.7226 -11.774 19.0324
LeftShoulder1  4.01439 -8.26355 -28.0613
LeftArm  -3.29921 25.7895 -42.4253
LeftForeArm  159.131 -71.865 -148.978
LeftHand  -0.361858 -4.84519 4.40374
RightShoulder  3.22517 7.45398 23.2561
RightArm  -25.4589 41.9426 42.745
RightForeArm  40.9482 68.7551 25.1433
RightHand  -1.02623 4.91397 -11.8046
LeftUpLeg  -1.00865 -0.90081 0.181651
LeftLeg  0.806462 1.3987 -0.177991
LeftFoot  -0.155078 0.16283 -1.65367
LeftToes  4.76866e-008 1.46233e-008 1.30548e-009
548
root  -2.41805 40.9093 1.1288 -3.16728 -75.8876 3.80017
RightUpLeg  5.21559 -3.36939 -2.95154
RightLeg  -2.75079 -31.6012 1.97759
RightFoot  -0.906714 -0.425174 4.61976
RightToes  -3.13006e-008 1.75238e-005 3.56266e-009
Spine  -7.49909 2.83022 0.874641
Spine1  14.1991 4.39718 -4.44976
HEad  -16.4368 -10.9813 17.8226
LeftShoulder1  4.05784 -8.25117 -28.4779
LeftArm  -3.87578 26.0578 -41.9587
LeftForeArm  158.384 -71.8393 -148.91
LeftHand  -0.379189 -4.55797 4.71302
RightShoulder  3.1152 7.4668 22.1562
RightArm  -26.5994 43.0139 39.4688
RightForeArm  38.501 67.9373 24.2522
RightHand  -0.810866 4.67372 -9.61474
LeftUpLeg  -0.762631 -0.680758 0.289879
LeftLeg  0.420599 1.20329 -0.364995
LeftFoot  -0.117507 0.191419 -1.94113
LeftToes  4.76866e-008 1.46233e-008 1.30548e-009
549
root  -2.41938 40.9104 1.12107 -3.34821 -75.949 3.80507
RightUpLeg  5.47114 -3.37863 -2.94998
RightLeg  -2.91137 -31.5122 2.06518
RightFoot  -0.904397 -0.412674 4.45534
RightToes  -3.13006e-008 1.75238e-005 3.56266e-009
Spine  -7.2372 2.66059 0.913143
Spine1  13.668 4.26387 -4.73521
HEad  -15.8786 -10.4989 16.6766
LeftShoulder1  4.05813 -8.28824 -28.3691
LeftArm  -4.54859 26.7675 -42.2449
LeftForeArm  158.398 -72.1015 -148.449
LeftHand  -0.417474 -4.66679 5.11261
RightShoulder  2.94933 7.25041 21.1056
RightArm  -27.409 43.3099 35.9423
RightForeArm  36.1406 67.7952 24.4128
RightHand  -0.581351 4.76998 -6.93313
LeftUpLeg  -0.468377 -0.487259 0.378319
LeftLeg  0.236686 1.04372 -0.492094
LeftFoot  -0.0923998 0.194478 -1.97309
LeftToes  4.76866e-008 1.46233e-008 1.30548e-009
550
root  -2.42236 40.9089 1.10621 -3.4115 -75.8949 3.67931
RightUpLeg  5.64386 -3.42634 -2.93296
RightLeg  -2.82191 -31.5383 2.07448
RightFoot  -0.996655 -0.408616 4.43371
RightToes  -3.13006e-008 1.75238e-005 3.56266e-009
Spine  -7.23467 2.61148 0.837168
Spine1  13.85 4.1972 -4.64135
HEad  -16.1554 -9.61079 15.1469
LeftShoulder1  4.08073 -8.2971 -28.5391
LeftArm  -5.37961 26.9095 -42.7332
LeftForeArm  158.944 -72.4184 -147.958
LeftHand  -0.402164 -4.91693 4.8291
RightShoulder  2.64681 6.49708 20.0995
RightArm  -28.4968 43.7993 33.2199
RightForeArm  33.8209 68.3199 25.6068
RightHand  -0.559069 4.48431 -6.84812
LeftUpLeg  -0.334406 -0.383611 0.455686
LeftLeg  0.366573 0.835396 -0.516159
LeftFoot  -0.134685 0.197822 -2.0067
LeftToes  4.76866e-008 1.46233e-008 1.30548e-009
551
root  -2.44239 40.9017 1.07928 -3.29694 -75.4504 3.44952
RightUpLeg  5.77912 -3.50165 -2.88865
RightLeg  -2.66225 -31.8834 2.08983
RightFoot  -1.16436 -0.406126 4.46732
RightToes  -3.13006e-008 1.75238e-005 3.56266e-009
Spine  -7.36569 2.45486 0.75802
Spine1  14.089 4.09346 -4.76533
HEad  -16.345 -9.75589 14.0097
LeftShoulder1  4.10503 -8.37219 -28.5244
LeftArm  -6.06017 27.1713 -43.0784
LeftForeArm  158.98 -72.3371 -148.109
LeftHand  -0.368928 -4.93851 4.44851
RightShoulder  2.5763 6.29937 19.8944
RightArm  -31.1056 43.5549 30.4563
RightForeArm  35.5132 69.3633 27.1066
RightHand  -0.579866 4.5245 -7.06682
LeftUpLeg  -0.413067 -0.379518 0.501907
LeftLeg  0.716766 0.369841 -0.45595
LeftFoot  -0.288963 0.19745 -1.98212
LeftToes  4.76866e-008 1.46233e-008 1.30548e-009
552
root  -2.44323 40.8953 1.055 -3.3465 -75.0735 3.4735
RightUpLeg  5.6918 -3.61464 -2.91193
RightLeg  -2.28188 -32.1218 1.97941
RightFoot  -1.31933 -0.39459 4.40357
RightToes  -3.13006e-008 1.75238e-005 3.56266e-009
Spine  -6.94157 2.38052 0.994957
Spine1  13.5576 4.17459 -5.41453
HEad  -16.6749 -9.46061 13.1344
LeftShoulder1  4.05766 -8.30254 -28.3224
LeftArm  -6.02819 27.8761 -43.3997
LeftForeArm  158.999 -71.9545 -148.803
LeftHand  -0.394261 -4.76348 4.80294
RightShoulder  2.51292 6.07135 19.8562
RightArm  -34.0656 42.6659 28.7396
RightForeArm  38.196 70.4167 28.6522
RightHand  -0.505425 4.92828 -5.96927
LeftUpLeg  -0.552851 -0.501268 0.454453
LeftLeg  0.963049 0.102711 -0.360471
LeftFoot  -0.353531 0.204602 -2.07362
LeftToes  4.76866e-008 1.46233e-008 1.30548e-009
553
root  -2.45867 40.894 1.03894 -3.17278 -74.8384 3.42067
RightUpLeg  5.61703 -3.56997 -2.84669
RightLeg  -2.3163 -32.4077 1.99174
RightFoot  -1.31954 -0.399096 4.50788
RightToes  -3.13006e-008 1.75238e-005 3.56266e-009
Spine  -6.97813 2.45165 1.33928
Spine1  13.376 4.40864 -6.07117
HEad  -16.757 -9.38982 12.561
LeftShoulder1  4.0904 -8.39909 -28.3183
LeftArm  -6.42281 28.2288 -43.7192
LeftForeArm  158.289 -71.9268 -148.743
LeftHand  -0.402684 -4.75615 4.90337
RightShoulder  2.4171 5.76308 19.6833
RightArm  -36.3919 41.5103 27.7105
RightForeArm  41.0121 71.2823 29.9667
RightHand  -0.617317 5.21822 -7.05647
LeftUpLeg  -0.732049 -0.573298 0.443055
LeftLeg  1.02944 -0.02694 -0.308317
LeftFoot  -0.367752 0.20545 -2.06567
LeftToes  4.76866e-008 1.46233e-008 1.30548e-009
554
root  -2.48954 40.897 1.02143 -3.15405 -74.6227 3.46419
RightUpLeg  5.73663 -3.54124 -2.79662
RightLeg  -2.60425 -32.6779 2.12741
RightFoot  -1.26908 -0.393861 4.46298
RightToes  -3.13006e-008 1.75238e-005 3.56266e-009
Spine  -6.93264 2.38848 1.46316
Spine1  13.0527 4.4527 -6.53806
HEad  -16.5212 -9.61303 12.1177
LeftShoulder1  4.09866 -8.42041 -28.3263
LeftArm  -6.78639 28.8185 -43.9667
LeftForeArm  158.337 -71.7749 -149.015
LeftHand  -0.440954 -4.62598 5.40194
RightShoulder  2.34587 5.58327 19.3973
RightArm  -36.9331 40.1121 27.7551
RightForeArm  42.3653 71.6755 30.6086
RightHand  -0.703919 4.81689 -8.2829
LeftUpLeg  -0.739365 -0.616575 0.440329
LeftLeg  0.943758 -0.18781 -0.276618
LeftFoot  -0.336199 0.213073 -2.16113
LeftToes  4.76866e-008 1.46233e-008 1.30548e-009
555
root  -2.53918 40.9011 1.00716 -3.3716 -74.577 3.71667
RightUpLeg  5.82179 -3.56937 -2.83743
RightLeg  -2.68478 -32.6769 2.17044
RightFoot  -1.28173 -0.390401 4.44876
RightToes  -3.13006e-008 1.75238e-005 3.56266e-009
Spine  -7.0766 2.33945 1.5698
Spine1  12.8977 4.5552 -7.12432
HEad  -16.1711 -8.56004 11.0795
LeftShoulder1  4.06154 -8.3988 -28.0705
LeftArm  -6.95221 29.2893 -44.3608
LeftForeArm  156.978 -71.7744 -148.812
LeftHand  -0.423533 -4.52251 5.24641
RightShoulder  2.36812 5.61852 19.5517
RightArm  -36.1582 38.5776 27.861
RightForeArm  42.7998 71.7112 30.6052
RightHand  -0.73497 4.64821 -8.77086
LeftUpLeg  -0.566982 -0.628301 0.416205
LeftLeg  0.678096 -0.181391 -0.282571
LeftFoot  -0.294295 0.223211 -2.29328
LeftToes  4.76866e-008 1.46233e-008 1.30548e-009
